<?xml version="1.0" encoding="UTF-8" standalone="no"?>
<svg
   xmlns:dc="http://purl.org/dc/elements/1.1/"
   xmlns:cc="http://creativecommons.org/ns#"
   xmlns:rdf="http://www.w3.org/1999/02/22-rdf-syntax-ns#"
   xmlns:svg="http://www.w3.org/2000/svg"
   xmlns="http://www.w3.org/2000/svg"
   xmlns:sodipodi="http://sodipodi.sourceforge.net/DTD/sodipodi-0.dtd"
   xmlns:inkscape="http://www.inkscape.org/namespaces/inkscape"
   viewBox="0 0 600 600"
   version="1.1"
   id="svg907"
   sodipodi:docname="logo simple.svg"
   inkscape:version="1.0.1 (c497b03c, 2020-09-10)">
  <metadata
     id="metadata911">
    <rdf:RDF>
      <cc:Work
         rdf:about="">
        <dc:format>image/svg+xml</dc:format>
        <dc:type
           rdf:resource="http://purl.org/dc/dcmitype/StillImage" />
        <dc:title />
      </cc:Work>
    </rdf:RDF>
  </metadata>
  <sodipodi:namedview
     pagecolor="#ffffff"
     bordercolor="#666666"
     borderopacity="1"
     objecttolerance="10"
     gridtolerance="10"
     guidetolerance="10"
     inkscape:pageopacity="0"
     inkscape:pageshadow="2"
     inkscape:window-width="1440"
     inkscape:window-height="855"
     id="namedview909"
     showgrid="false"
     inkscape:zoom="1.017579"
     inkscape:cx="206.00121"
     inkscape:cy="307.16566"
     inkscape:window-x="0"
     inkscape:window-y="23"
     inkscape:window-maximized="0"
     inkscape:current-layer="svg907"
     inkscape:document-rotation="0" />
  <defs
     id="defs835">
    <style
       id="style833">.a{fill:#2783c1}.b{fill:#25a6e2}.c{fill:#93c9eb}.d{fill:#25a4e2}.e{fill:#dbf7fb}.f{fill:#93caeb}.g{fill:#fdfdfd}</style>
  </defs>
  <rect
     width="600"
     height="600"
     class="a"
     rx="140"
     id="rect837" />
  <rect
     width="560"
     height="560"
     x="20"
     y="20"
     class="b"
     rx="120"
     id="rect839" />
  <path
     d="M536.2,376c-.05,5.65-4.24,10.73-8.83,10.58-6.81-.24-10.75-3.71-11-10.47-.2-6.28,5.66-10.06,10.16-9.88C531.58,366.43,536.25,371,536.2,376Z"
     class="d"
     transform="translate(-11.36 -8.69)"
     id="path845" />
  <path
     d="M427.52,99.08"
     class="d"
     transform="translate(-11.36 -8.69)"
     id="path851" />
  <path
     d="M419.54,103.13"
     class="d"
     transform="translate(-11.36 -8.69)"
     id="path853" />
  <circle
     cx="189.56"
     cy="172.45"
     r="8"
     class="a"
     id="circle895" />
  <circle
     cx="210.84"
     cy="172.45"
     r="8"
     class="a"
     id="circle897" />
  <circle
     cx="232.13"
     cy="172.45"
     r="8"
     class="a"
     id="circle899" />
  <g
     id="g1624"
     transform="matrix(1,0,0,0.985397,0,6.971405)">
    <rect
       width="375"
       height="250.80562"
       x="112.5"
       y="135"
       class="a"
       rx="20"
       id="rect883"
       style="stroke-width:1.00161" />
    <rect
       width="340"
       height="220.70895"
       x="130"
       y="153.058"
       class="e"
       rx="20.540001"
       id="rect887"
       style="stroke-width:1.00161" />
    <rect
       width="300"
       height="180.58005"
       x="150"
       y="176.91464"
       class="a"
       rx="17.450001"
       id="rect891"
       style="stroke-width:1.00161" />
    <g
       id="g916"
       transform="matrix(1,0,0,1.0032225,-0.79407661,15.528019)">
      <path
         d="m 218.34,272 c -5.65,-3.63 -4.79,-8.26 -4.28,-12.82 0.47,-4.17 3.7,-5.82 8,-7.45 14.11,-5.31 28.65,-9.88 41.42,-18.28 a 8.71,8.71 0 0 1 8.46,-0.55 c 2.83,1.15 1.67,4.14 1.92,6.5 0.76,7 -1.87,10.91 -8.86,13.1 -8.34,2.62 -16.26,6.58 -25.61,10.48 9.83,4 18.35,7.43 26.81,11 6.74,2.83 10.3,11.47 7.23,18 -0.82,1.74 -1.51,3.39 -5.17,1.53"
         class="g"
         transform="translate(-11.36,-8.69)"
         id="path901" />
      <path
         d="m 381.62,262.1 q -13.53,-5.39 -27.12,-10.78 c -5.19,-2.08 -8.38,-12.83 -5.09,-17.29 1.86,-2.51 4.2,-1.81 6.6,-0.78 16.22,7 32.4,14.07 48.71,20.86 4.75,2 4.19,5.74 4.3,9.51 0.13,4.14 -1.19,8.16 -5.12,9.24 -15.54,4.31 -29.52,12.32 -44.43,18.08 -3.47,1.33 -8.47,5.11 -10.18,-1 -1.4,-5 -3.14,-11.67 4.26,-14.79"
         class="g"
         transform="translate(-11.36,-8.69)"
         id="path903" />
      <path
         d="m 309,299.05 c -1.88,5.7 -4.9,9.09 -10.44,7.58 -10.21,-0.19 -11.37,-1.57 -8.08,-10 q 14.46,-37 29.27,-73.87 c 1.95,-4.88 12.49,-7.28 16.6,-4 2.78,2.19 1.82,4.95 0.86,7.44"
         class="g"
         transform="translate(-11.36,-8.69)"
         id="path905" />
    </g>
    <g
       id="g1587"
       transform="matrix(1.29662,0,0,0.83945377,-89.324,95.130659)">
      <path
         id="rect1542"
         style="fill:#2783c1;fill-opacity:1;stroke-width:0.728648"
         d="m 283.92212,345 c -0.0582,0.23354 -6.81596,27.31381 -13.34919,37.4992 -8.12339,12.66447 -19.0214,20.44901 -30.36204,26.64322 C 227.92107,415.85507 201.47364,419.78475 200,420 h 100.90433 v -75 z" />
      <path
         id="rect1542-5"
         style="fill:#2783c1;fill-opacity:1;stroke-width:0.728648"
         d="m 316.07788,345 c 0.0582,0.23354 6.81596,27.31381 13.34919,37.4992 8.12339,12.66447 19.02139,20.44901 30.36204,26.64322 C 372.07892,415.85507 398.52636,419.78475 400,420 H 299.09566 v -75 z" />
      <rect
         style="fill:#2783c1;fill-opacity:1"
         id="rect1576"
         width="200.52136"
         height="14.343812"
         x="200"
         y="420" />
    </g>
  </g>
</svg>
